<?xml version="1.0" encoding="iso-8859-1"?>
<!-- Generator: Adobe Illustrator 19.0.0, SVG Export Plug-In . SVG Version: 6.00 Build 0)  -->
<svg version="1.1" id="Capa_1" xmlns="http://www.w3.org/2000/svg" xmlns:xlink="http://www.w3.org/1999/xlink" x="0px" y="0px"
	 viewBox="0 0 512 512" style="enable-background:new 0 0 512 512;" xml:space="preserve">
<g>
	<g>
		<path d="M256,136c-66.168,0-120,53.832-120,120s53.832,120,120,120s120-53.832,120-120S322.168,136,256,136z M256,336
			c-44.112,0-80-35.888-80-80s35.888-80,80-80s80,35.888,80,80S300.112,336,256,336z"/>
	</g>
</g>
<g>
	<g>
		<rect x="236" width="40" height="96"/>
	</g>
</g>
<g>
	<g>
		<rect y="236" width="96" height="40"/>
	</g>
</g>
<g>
	<g>
		<rect x="236" y="416" width="40" height="96"/>
	</g>
</g>
<g>
	<g>
		<rect x="416" y="236" width="96" height="40"/>
	</g>
</g>
<g>
	<g>
		<rect x="355.08" y="88.917" transform="matrix(0.7071 -0.7071 0.7071 0.7071 41.0435 316.9209)" width="95.999" height="40"/>
	</g>
</g>
<g>
	<g>
		<rect x="88.922" y="60.917" transform="matrix(0.7071 -0.7071 0.7071 0.7071 -45.1129 108.9198)" width="40" height="95.999"/>
	</g>
</g>
<g>
	<g>
		<rect x="60.92" y="383.075" transform="matrix(0.7071 -0.7071 0.7071 0.7071 -253.1153 195.0755)" width="95.999" height="40"/>
	</g>
</g>
<g>
	<g>
		<rect x="383.08" y="355.076" transform="matrix(0.7071 -0.7071 0.7071 0.7071 -166.9582 403.0787)" width="40" height="95.999"/>
	</g>
</g>
<g>
</g>
<g>
</g>
<g>
</g>
<g>
</g>
<g>
</g>
<g>
</g>
<g>
</g>
<g>
</g>
<g>
</g>
<g>
</g>
<g>
</g>
<g>
</g>
<g>
</g>
<g>
</g>
<g>
</g>
</svg>
