<?xml version="1.0" encoding="iso-8859-1"?>
<!-- Generator: Adobe Illustrator 19.0.0, SVG Export Plug-In . SVG Version: 6.00 Build 0)  -->
<svg version="1.1" id="Capa_1" xmlns="http://www.w3.org/2000/svg" xmlns:xlink="http://www.w3.org/1999/xlink" x="0px" y="0px"
	 viewBox="0 0 512.001 512.001" style="enable-background:new 0 0 512.001 512.001;" xml:space="preserve">
<g>
	<g>
		<path d="M493.642,117.175c-11.587-11.368-26.763-17.464-42.799-17.155c-6.513,0.125-12.854,1.283-18.837,3.392v-2.613
			c0-16.275-6.692-32.174-18.359-43.62c-11.588-11.368-26.801-17.462-42.799-17.155c-7.358,0.141-14.499,1.601-21.148,4.262
			c-2.889-10.183-8.398-19.6-16.047-27.103c-11.589-11.37-26.806-17.445-42.8-17.157c-15.784,0.302-30.573,6.676-41.644,17.947
			c-7.294,7.427-12.432,16.43-15.093,26.227c-6.588-2.606-13.656-4.037-20.935-4.177c-16.033-0.291-31.211,5.788-42.799,17.155
			c-11.667,11.446-18.359,27.345-18.359,43.62v225.167c0,6.178-2.874,11.793-7.884,15.408c-4.754,3.43-10.611,4.465-16.206,2.898
			l-47.891-22.239l-1.081-0.359c-15.207-5.056-31.474-3.884-45.801,3.296S8.157,344.478,3.103,359.686
			c-9.851,29.641,4.265,60.177,35.126,76.014l76.213,39.855c45.574,23.833,96.848,36.431,148.28,36.431h129.286
			c66.164,0,119.993-53.829,119.993-119.993V160.796C512.001,144.521,505.309,128.622,493.642,117.175z M472.006,391.992h-0.003
			c0,44.109-35.886,79.995-79.995,79.995H262.721c-45.002,0-89.868-11.022-129.744-31.877l-76.286-39.893l-0.157-0.081
			c-4.958-2.537-20.724-12.041-15.474-27.836c1.685-5.069,5.243-9.178,10.018-11.572c2.824-1.415,5.872-2.129,8.939-2.129
			c1.814,0,3.635,0.25,5.42,0.753l47.896,22.241l1.082,0.36c18.203,6.048,37.565,3.083,53.123-8.141
			c15.557-11.223,24.48-28.662,24.48-47.845V100.799c0-5.604,2.323-11.095,6.373-15.068c3.858-3.786,8.844-5.79,14.024-5.717
			c10.808,0.207,19.602,9.176,19.602,19.996v154.991h39.998V100.01v-9.999V60.013c0-10.818,8.793-19.789,19.602-19.996
			c5.172-0.07,10.165,1.932,14.024,5.717c4.05,3.973,6.373,9.465,6.373,15.068V90.01v9.999V255h39.998V100.01
			c0-10.818,8.793-19.789,19.602-19.996c5.188-0.083,10.166,1.932,14.024,5.717c4.05,3.973,6.373,9.465,6.373,15.068v19.209v39.998
			v94.994h39.998v-94.994c0-10.818,8.793-19.789,19.602-19.996c5.183-0.082,10.165,1.932,14.024,5.717
			c4.05,3.973,6.373,9.465,6.373,15.068V391.992z"/>
	</g>
</g>
<g>
</g>
<g>
</g>
<g>
</g>
<g>
</g>
<g>
</g>
<g>
</g>
<g>
</g>
<g>
</g>
<g>
</g>
<g>
</g>
<g>
</g>
<g>
</g>
<g>
</g>
<g>
</g>
<g>
</g>
</svg>
