<?xml version="1.0" encoding="iso-8859-1"?>
<!-- Generator: Adobe Illustrator 19.0.0, SVG Export Plug-In . SVG Version: 6.00 Build 0)  -->
<svg version="1.1" id="Capa_1" xmlns="http://www.w3.org/2000/svg" xmlns:xlink="http://www.w3.org/1999/xlink" x="0px" y="0px"
	 viewBox="0 0 512 512" style="enable-background:new 0 0 512 512;" xml:space="preserve">
<g>
	<g>
		<path d="M376,232.061V196c0-44.112-35.888-80-80-80h-56V0H0v240h116v56c0,44.112,35.888,80,80,80h36.061
			c2.125,75.354,64.081,136,139.939,136c77.196,0,140-62.804,140-140C512,296.142,451.354,234.186,376,232.061z M116,196v4H40V40
			h160v76h-4C151.888,116,116,151.888,116,196z M196,336c-22.056,0-40-17.944-40-40V196c0-22.056,17.944-40,40-40h100
			c22.056,0,40,17.944,40,40v40.701c-48.314,12.867-86.432,50.984-99.299,99.299H196z M372,472c-55.141,0-100-44.86-100-100
			s44.859-100,100-100s100,44.86,100,100S427.141,472,372,472z"/>
	</g>
</g>
<g>
</g>
<g>
</g>
<g>
</g>
<g>
</g>
<g>
</g>
<g>
</g>
<g>
</g>
<g>
</g>
<g>
</g>
<g>
</g>
<g>
</g>
<g>
</g>
<g>
</g>
<g>
</g>
<g>
</g>
</svg>
