<?xml version="1.0" encoding="iso-8859-1"?>
<!-- Generator: Adobe Illustrator 19.0.0, SVG Export Plug-In . SVG Version: 6.00 Build 0)  -->
<svg version="1.1" id="Capa_1" xmlns="http://www.w3.org/2000/svg" xmlns:xlink="http://www.w3.org/1999/xlink" x="0px" y="0px"
	 viewBox="0 0 512 512" style="enable-background:new 0 0 512 512;" xml:space="preserve">
<g>
	<g>
		<path d="M452,120h-16V0H316v40h-40v40h40v40h-16c-33.084,0-60,26.916-60,60v332h272V180C512,146.916,485.084,120,452,120z M356,40
			h40v80h-40V40z M472,472H280V180c0-11.028,8.972-20,20-20h152c11.028,0,20,8.972,20,20V472z"/>
	</g>
</g>
<g>
	<g>
		<circle cx="60" cy="60" r="20"/>
	</g>
</g>
<g>
	<g>
		<circle cx="100" cy="100" r="20"/>
	</g>
</g>
<g>
	<g>
		<circle cx="100" cy="20" r="20"/>
	</g>
</g>
<g>
	<g>
		<circle cx="20" cy="100" r="20"/>
	</g>
</g>
<g>
	<g>
		<circle cx="20" cy="20" r="20"/>
	</g>
</g>
<g>
	<g>
		<circle cx="180" cy="20" r="20"/>
	</g>
</g>
<g>
	<g>
		<circle cx="140" cy="60" r="20"/>
	</g>
</g>
<g>
	<g>
		<circle cx="180" cy="100" r="20"/>
	</g>
</g>
<g>
	<g>
		<circle cx="220" cy="60" r="20"/>
	</g>
</g>
<g>
</g>
<g>
</g>
<g>
</g>
<g>
</g>
<g>
</g>
<g>
</g>
<g>
</g>
<g>
</g>
<g>
</g>
<g>
</g>
<g>
</g>
<g>
</g>
<g>
</g>
<g>
</g>
<g>
</g>
</svg>
