<?xml version="1.0" encoding="iso-8859-1"?>
<!-- Generator: Adobe Illustrator 19.0.0, SVG Export Plug-In . SVG Version: 6.00 Build 0)  -->
<svg version="1.1" id="Capa_1" xmlns="http://www.w3.org/2000/svg" xmlns:xlink="http://www.w3.org/1999/xlink" x="0px" y="0px"
	 viewBox="0 0 512.001 512.001" style="enable-background:new 0 0 512.001 512.001;" xml:space="preserve">
<g>
	<g>
		<path d="M488.51,23.413c-31.22-31.172-81.994-31.147-113.184,0.056l-0.921,0.921L0,511.95l280.736-99.083v-84.353l37.497,29.433
			l171.298-222.27c14.511-15.012,22.48-34.721,22.47-55.653C511.99,58.633,503.647,38.528,488.51,23.413z M240.765,384.586h-0.001
			l-126.975,44.815l111.123-144.706l15.853,12.443V384.586z M311.19,301.604l-61.933-48.614l24.608-32.044l61.987,48.656
			L311.19,301.604z M460.296,108.399l-0.909,0.909L360.254,237.94l-62.042-48.699L404.44,50.908
			c15.675-14.802,40.472-14.54,55.827,0.791c7.579,7.568,11.757,17.633,11.762,28.344
			C472.034,90.754,467.867,100.825,460.296,108.399z"/>
	</g>
</g>
<g>
</g>
<g>
</g>
<g>
</g>
<g>
</g>
<g>
</g>
<g>
</g>
<g>
</g>
<g>
</g>
<g>
</g>
<g>
</g>
<g>
</g>
<g>
</g>
<g>
</g>
<g>
</g>
<g>
</g>
</svg>
