<?xml version="1.0" encoding="iso-8859-1"?>
<!-- Generator: Adobe Illustrator 19.0.0, SVG Export Plug-In . SVG Version: 6.00 Build 0)  -->
<svg version="1.1" id="Capa_1" xmlns="http://www.w3.org/2000/svg" xmlns:xlink="http://www.w3.org/1999/xlink" x="0px" y="0px"
	 viewBox="0 0 512 512" style="enable-background:new 0 0 512 512;" xml:space="preserve">
<g>
	<g>
		<path d="M462.097,271.969h-30.94V141.224c0-33.02-26.864-59.883-59.883-59.883H239.532v-30.94
			c0-27.516-22.386-49.903-49.903-49.903H49.903C22.386,0.499,0,22.885,0,50.402v139.727c0,27.516,22.386,49.903,49.903,49.903
			H81.84v130.745c0,33.02,26.864,59.883,59.883,59.883h130.745v30.94c0,27.516,22.386,49.903,49.903,49.903h139.727
			c27.516,0,49.903-22.386,49.903-49.903V321.871C512,294.355,489.614,271.969,462.097,271.969z M49.903,200.109
			c-5.503,0-9.98-4.477-9.98-9.981V50.402c0-5.503,4.477-9.98,9.98-9.98H189.63c5.503,0,9.981,4.477,9.981,9.98v139.727
			c0,5.503-4.477,9.981-9.981,9.981H49.903z M272.468,321.871v68.865H141.723c-11.007,0-19.961-8.954-19.961-19.961V240.031h67.867
			c27.516,0,49.903-22.386,49.903-49.903v-68.865h131.743c11.007,0,19.961,8.954,19.961,19.961v130.745H322.37
			C294.854,271.969,272.468,294.355,272.468,321.871z M472.078,461.598c0,5.503-4.477,9.981-9.981,9.981H322.37
			c-5.503,0-9.98-4.477-9.98-9.981V321.871c0-5.503,4.477-9.98,9.98-9.98h139.727c5.503,0,9.981,4.477,9.981,9.98V461.598z"/>
	</g>
</g>
<g>
</g>
<g>
</g>
<g>
</g>
<g>
</g>
<g>
</g>
<g>
</g>
<g>
</g>
<g>
</g>
<g>
</g>
<g>
</g>
<g>
</g>
<g>
</g>
<g>
</g>
<g>
</g>
<g>
</g>
</svg>
