<?xml version="1.0" encoding="iso-8859-1"?>
<!-- Generator: Adobe Illustrator 19.0.0, SVG Export Plug-In . SVG Version: 6.00 Build 0)  -->
<svg version="1.1" id="Capa_1" xmlns="http://www.w3.org/2000/svg" xmlns:xlink="http://www.w3.org/1999/xlink" x="0px" y="0px"
	 viewBox="0 0 512 512" style="enable-background:new 0 0 512 512;" xml:space="preserve">
<g>
	<g>
		<path d="M437.02,74.98C388.667,26.629,324.38,0,256,0S123.333,26.629,74.98,74.98C26.629,123.333,0,187.62,0,256
			s26.629,132.667,74.98,181.02C123.333,485.371,187.62,512,256,512s132.667-26.629,181.02-74.98
			C485.371,388.667,512,324.38,512,256S485.371,123.333,437.02,74.98z M446.121,153.561l-89.053,37.806
			c-9.374-14.607-21.826-27.059-36.433-36.434l37.805-89.054C395.502,85.929,426.071,116.499,446.121,153.561z M336,256
			c0,44.112-35.888,80-80,80s-80-35.888-80-80s35.888-80,80-80S336,211.888,336,256z M256,40c22.876,0,44.928,3.587,65.637,10.208
			l-37.807,89.057C274.895,137.135,265.578,136,256,136s-18.895,1.135-27.83,3.265l-37.807-89.057C211.072,43.587,233.123,40,256,40
			z M153.561,65.879l37.806,89.053c-14.608,9.374-27.06,21.827-36.434,36.434L65.88,153.56
			C85.929,116.499,116.499,85.929,153.561,65.879z M40,256c0-22.877,3.587-44.928,10.208-65.637l89.057,37.807
			C137.135,237.105,136,246.422,136,256s1.135,18.894,3.265,27.829l-89.057,37.807C43.587,300.928,40,278.876,40,256z
			 M65.879,358.44l89.053-37.806c9.374,14.607,21.826,27.059,36.433,36.433l-37.805,89.054
			C116.499,426.071,85.929,395.501,65.879,358.44z M256,472c-22.877,0-44.928-3.587-65.637-10.208l37.807-89.057
			c8.935,2.13,18.252,3.265,27.83,3.265s18.894-1.135,27.829-3.264l37.808,89.057C300.928,468.413,278.876,472,256,472z
			 M358.44,446.121l-37.806-89.053c14.607-9.374,27.06-21.826,36.434-36.433l89.054,37.806
			C426.071,395.501,395.501,426.071,358.44,446.121z M372.735,283.83c2.13-8.935,3.265-18.252,3.265-27.83
			c0-9.578-1.135-18.895-3.265-27.83l89.057-37.807C468.413,211.072,472,233.123,472,256c0,22.876-3.587,44.928-10.208,65.637
			L372.735,283.83z"/>
	</g>
</g>
<g>
</g>
<g>
</g>
<g>
</g>
<g>
</g>
<g>
</g>
<g>
</g>
<g>
</g>
<g>
</g>
<g>
</g>
<g>
</g>
<g>
</g>
<g>
</g>
<g>
</g>
<g>
</g>
<g>
</g>
</svg>
