<?xml version="1.0" encoding="iso-8859-1"?>
<!-- Generator: Adobe Illustrator 19.0.0, SVG Export Plug-In . SVG Version: 6.00 Build 0)  -->
<svg version="1.1" id="Capa_1" xmlns="http://www.w3.org/2000/svg" xmlns:xlink="http://www.w3.org/1999/xlink" x="0px" y="0px"
	 viewBox="0 0 512 512" style="enable-background:new 0 0 512 512;" xml:space="preserve">
<g>
	<g>
		<path d="M121.532,70.215c-5.493,0-9.962-4.469-9.962-9.962V40.33H71.724v19.923c0,5.493-4.469,9.962-9.962,9.962H41.839v39.846
			h19.923c5.493,0,9.962,4.469,9.962,9.962v19.923h39.847v-19.923c0-5.493,4.469-9.962,9.962-9.962h19.923V70.215H121.532z"/>
	</g>
</g>
<g>
	<g>
		<path d="M453.254,390.98c-10.986,0-19.923-8.938-19.923-19.923v-19.923h-39.846v19.923c0,10.986-8.938,19.923-19.923,19.923
			h-19.923v39.847h19.923c10.986,0,19.923,8.938,19.923,19.923v19.923h39.846V450.75c0-10.986,8.938-19.923,19.923-19.923h19.923
			V390.98H453.254z"/>
	</g>
</g>
<g>
	<g>
		<path d="M494.522,17.991c-11.29-11.29-26.3-17.507-42.264-17.507s-30.975,6.217-42.241,17.485l-214.664,214.01
			c-3.945-12.381-6.082-25.563-6.082-39.235V172.82h-39.846v19.923c0,28.53-9.281,54.929-24.973,76.353l-60.764-60.763
			l-28.175,28.176l60.764,60.763c-21.423,15.692-47.823,24.973-76.353,24.973H0v39.846h19.923c28.53,0,54.929,9.281,76.353,24.972
			l-60.764,60.763l28.175,28.175l60.764-60.763c15.692,21.424,24.973,47.824,24.973,76.354v19.923h39.846v-19.923
			c0-28.53,9.281-54.929,24.973-76.353l60.764,60.763l28.175-28.175l-60.764-60.763c21.424-15.692,47.823-24.972,76.353-24.972
			h19.923v-39.846h-19.923c-13.481,0-26.487-2.073-38.718-5.913l214.467-213.814C517.826,79.213,517.826,41.295,494.522,17.991z
			 M169.348,411.972c-15.835-29.599-40.205-53.969-69.803-69.804c8.885-4.754,17.301-10.27,25.155-16.473l0.817,0.818l13.27-13.27
			c0.549-0.541,1.094-1.087,1.636-1.636l13.27-13.27l-0.817-0.818c6.108-7.735,11.555-16.014,16.259-24.751l0.928,0.931
			c15.593,28.528,39.155,52.101,67.674,67.709l0.983,0.986C209.316,358.237,185.106,382.516,169.348,411.972z M466.368,74.321
			L242.601,297.405c-10.787-7.873-20.316-17.367-28.224-28.127L438.17,46.166c3.763-3.763,8.766-5.836,14.088-5.836
			s10.324,2.073,14.088,5.836C474.114,53.934,474.114,66.573,466.368,74.321z"/>
	</g>
</g>
<g>
</g>
<g>
</g>
<g>
</g>
<g>
</g>
<g>
</g>
<g>
</g>
<g>
</g>
<g>
</g>
<g>
</g>
<g>
</g>
<g>
</g>
<g>
</g>
<g>
</g>
<g>
</g>
<g>
</g>
</svg>
