<?xml version="1.0" encoding="iso-8859-1"?>
<!-- Generator: Adobe Illustrator 19.0.0, SVG Export Plug-In . SVG Version: 6.00 Build 0)  -->
<svg version="1.1" id="Capa_1" xmlns="http://www.w3.org/2000/svg" xmlns:xlink="http://www.w3.org/1999/xlink" x="0px" y="0px"
	 viewBox="0 0 512 512" style="enable-background:new 0 0 512 512;" xml:space="preserve">
<g>
	<g>
		<rect x="39.5" y="471.5" width="432" height="40"/>
	</g>
</g>
<g>
	<g>
		<path d="M332.975,266.927h-0.001c-9.835-1.506-16.974-9.82-16.974-19.77v-55.492c27.392-19.098,44.341-50.338,44.98-84.151
			C362.07,49.88,316.108,1.887,258.525,0.529c-28.518-0.658-55.49,9.928-75.886,29.85C162.236,50.306,151,76.985,151,105.5
			c0,34.66,16.973,66.67,45,86.173v55.484c0,9.95-7.139,18.264-16.975,19.77L0,294.328V431.5h512V294.328L332.975,266.927z
			 M472,391.5H40v-62.829l145.078-22.205c14.166-2.168,27.109-9.351,36.445-20.224C230.858,275.369,236,261.488,236,247.157v-78.64
			l-10.573-5.651C204.191,151.518,191,129.536,191,105.5c0-17.653,6.956-34.168,19.587-46.506
			c12.626-12.331,29.348-18.905,46.994-18.476c35.636,0.84,64.081,30.554,63.407,66.239c-0.444,23.502-13.631,45.001-34.415,56.108
			L276,168.516v78.64c0,14.331,5.142,28.212,14.477,39.086c9.336,10.873,22.279,18.056,36.445,20.224L472,328.672V391.5z"/>
	</g>
</g>
<g>
</g>
<g>
</g>
<g>
</g>
<g>
</g>
<g>
</g>
<g>
</g>
<g>
</g>
<g>
</g>
<g>
</g>
<g>
</g>
<g>
</g>
<g>
</g>
<g>
</g>
<g>
</g>
<g>
</g>
</svg>
