<?xml version="1.0" encoding="iso-8859-1"?>
<!-- Generator: Adobe Illustrator 19.0.0, SVG Export Plug-In . SVG Version: 6.00 Build 0)  -->
<svg version="1.1" id="Capa_1" xmlns="http://www.w3.org/2000/svg" xmlns:xlink="http://www.w3.org/1999/xlink" x="0px" y="0px"
	 viewBox="0 0 512 512" style="enable-background:new 0 0 512 512;" xml:space="preserve">
<g>
	<g>
		<path d="M437.02,74.98C388.667,26.629,324.38,0,256,0S123.333,26.629,74.98,74.98C26.629,123.333,0,187.62,0,256
			s26.629,132.667,74.98,181.02C123.333,485.371,187.62,512,256,512c33.442,0,52.425-14.011,62.46-25.764
			C333.722,468.362,336,447.716,336,437c0-24.979-7.516-38.557-13.554-49.467C317.543,378.673,314,372.272,314,358
			c0-26.467,21.532-48,48-48h96c29.775,0,54-24.224,54-54C512,187.62,485.371,123.333,437.02,74.98z M458,270h-96
			c-48.523,0-88,39.477-88,88c0,24.604,7.457,38.077,13.449,48.902C292.413,415.872,296,422.353,296,437c0,10.523-3.897,35-40,35
			c-119.103,0-216-96.897-216-216S136.897,40,256,40s216,96.897,216,216C472,263.72,465.72,270,458,270z"/>
	</g>
</g>
<g>
	<g>
		<path d="M113,230c-18.196,0-33,14.804-33,33s14.804,33,33,33s33-14.804,33-33C146,244.804,131.196,230,113,230z"/>
	</g>
</g>
<g>
	<g>
		<path d="M254,84c-20.953,0-38,17.047-38,38s17.047,38,38,38s38-17.047,38-38S274.953,84,254,84z"/>
	</g>
</g>
<g>
	<g>
		<path d="M179.583,140.085c-13.647-13.646-35.853-13.646-49.499,0s-13.646,35.85,0.001,49.497
			c6.823,6.823,15.785,10.234,24.748,10.234s17.927-3.412,24.75-10.235C193.229,175.936,193.229,153.731,179.583,140.085z"/>
	</g>
</g>
<g>
	<g>
		<path d="M380.451,131.55c-15.597-15.595-40.971-15.597-56.569,0c-15.596,15.595-15.596,40.972,0,56.568
			c7.799,7.798,18.042,11.697,28.284,11.697c10.243,0,20.486-3.899,28.285-11.697C396.047,172.523,396.047,147.146,380.451,131.55z"
			/>
	</g>
</g>
<g>
	<g>
		<path d="M171.046,340.952c-11.698-11.695-30.729-11.694-42.425,0l-0.001,0.001c-5.666,5.666-8.786,13.2-8.786,21.213
			c0,8.014,3.12,15.547,8.786,21.213c5.667,5.667,13.2,8.787,21.214,8.787c8.013,0,15.546-3.12,21.213-8.787
			c5.666-5.666,8.786-13.2,8.786-21.213S176.713,346.619,171.046,340.952z"/>
	</g>
</g>
<g>
</g>
<g>
</g>
<g>
</g>
<g>
</g>
<g>
</g>
<g>
</g>
<g>
</g>
<g>
</g>
<g>
</g>
<g>
</g>
<g>
</g>
<g>
</g>
<g>
</g>
<g>
</g>
<g>
</g>
</svg>
