<?xml version="1.0" encoding="iso-8859-1"?>
<!-- Generator: Adobe Illustrator 19.0.0, SVG Export Plug-In . SVG Version: 6.00 Build 0)  -->
<svg version="1.1" id="Capa_1" xmlns="http://www.w3.org/2000/svg" xmlns:xlink="http://www.w3.org/1999/xlink" x="0px" y="0px"
	 viewBox="0 0 512 512" style="enable-background:new 0 0 512 512;" xml:space="preserve">
<g>
	<g>
		<path d="M498.624,13.16c-17.472-17.472-45.852-17.547-63.415-0.226L211.654,224.342c-38.813-7.58-80.601,3.629-110.605,33.633
			c-35.884,35.884-38.344,74.099-40.721,111.054c-2.232,34.7-4.541,70.582-35.408,110.79L0.216,512h40.569
			c59.142,0,107.538-7.691,147.955-23.515c32.874-12.87,60.223-30.903,86.069-56.749c29.701-29.701,40.981-70.95,33.852-109.427
			L499.629,75.765C516.164,58.147,515.828,30.365,498.624,13.16z M246.524,403.45c-21.658,21.658-50.281,43.622-99.657,56.66
			c28.578-21.886,55.723-51.757,69.778-91.44l-37.706-13.355c-16.643,46.99-58.545,77.848-92.806,96.086
			c10.862-29.377,12.609-56.408,14.115-79.805c2.161-33.587,3.867-60.117,29.086-85.336c16.157-16.157,37.372-24.232,58.594-24.232
			c21.218,0,42.442,8.079,58.595,24.232C278.833,318.569,278.833,371.141,246.524,403.45z M291.639,278.961
			c-4.732-7.445-10.336-14.494-16.83-20.986c-6.791-6.791-14.188-12.618-22.016-17.484l32.528-30.761l35.925,31.006L291.639,278.961
			z M470.338,48.518l-0.895,0.895L345.777,209.068l-31.241-26.963l148.331-140.27l0.4-0.389c1.949-1.949,5.122-1.949,7.071,0
			C472.288,43.396,472.288,46.568,470.338,48.518z"/>
	</g>
</g>
<g>
</g>
<g>
</g>
<g>
</g>
<g>
</g>
<g>
</g>
<g>
</g>
<g>
</g>
<g>
</g>
<g>
</g>
<g>
</g>
<g>
</g>
<g>
</g>
<g>
</g>
<g>
</g>
<g>
</g>
</svg>
