<?xml version="1.0" encoding="iso-8859-1"?>
<!-- Generator: Adobe Illustrator 19.0.0, SVG Export Plug-In . SVG Version: 6.00 Build 0)  -->
<svg version="1.1" id="Capa_1" xmlns="http://www.w3.org/2000/svg" xmlns:xlink="http://www.w3.org/1999/xlink" x="0px" y="0px"
	 viewBox="0 0 512 512" style="enable-background:new 0 0 512 512;" xml:space="preserve">
<g>
	<g>
		<polygon points="160,150 160,190 237,190 237,362 277,362 277,190 352,190 352,150 		"/>
	</g>
</g>
<g>
	<g>
		<rect width="80" height="80"/>
	</g>
</g>
<g>
	<g>
		<rect x="432" width="80" height="80"/>
	</g>
</g>
<g>
	<g>
		<rect x="276" y="40" width="40" height="40"/>
	</g>
</g>
<g>
	<g>
		<rect x="354" y="40" width="40" height="40"/>
	</g>
</g>
<g>
	<g>
		<rect x="198" y="40" width="40" height="40"/>
	</g>
</g>
<g>
	<g>
		<rect x="120" y="40" width="40" height="40"/>
	</g>
</g>
<g>
	<g>
		<rect x="432" y="432" width="80" height="80"/>
	</g>
</g>
<g>
	<g>
		<rect x="432" y="276" width="40" height="40"/>
	</g>
</g>
<g>
	<g>
		<rect x="432" y="354" width="40" height="40"/>
	</g>
</g>
<g>
	<g>
		<rect x="432" y="198" width="40" height="40"/>
	</g>
</g>
<g>
	<g>
		<rect x="432" y="120" width="40" height="40"/>
	</g>
</g>
<g>
	<g>
		<rect y="432" width="80" height="80"/>
	</g>
</g>
<g>
	<g>
		<rect x="40" y="276" width="40" height="40"/>
	</g>
</g>
<g>
	<g>
		<rect x="40" y="354" width="40" height="40"/>
	</g>
</g>
<g>
	<g>
		<rect x="40" y="198" width="40" height="40"/>
	</g>
</g>
<g>
	<g>
		<rect x="40" y="120" width="40" height="40"/>
	</g>
</g>
<g>
	<g>
		<rect x="276" y="432" width="40" height="40"/>
	</g>
</g>
<g>
	<g>
		<rect x="354" y="432" width="40" height="40"/>
	</g>
</g>
<g>
	<g>
		<rect x="198" y="432" width="40" height="40"/>
	</g>
</g>
<g>
	<g>
		<rect x="120" y="432" width="40" height="40"/>
	</g>
</g>
<g>
</g>
<g>
</g>
<g>
</g>
<g>
</g>
<g>
</g>
<g>
</g>
<g>
</g>
<g>
</g>
<g>
</g>
<g>
</g>
<g>
</g>
<g>
</g>
<g>
</g>
<g>
</g>
<g>
</g>
</svg>
