<?xml version="1.0" encoding="iso-8859-1"?>
<!-- Generator: Adobe Illustrator 19.0.0, SVG Export Plug-In . SVG Version: 6.00 Build 0)  -->
<svg version="1.1" id="Capa_1" xmlns="http://www.w3.org/2000/svg" xmlns:xlink="http://www.w3.org/1999/xlink" x="0px" y="0px"
	 viewBox="0 0 512 512" style="enable-background:new 0 0 512 512;" xml:space="preserve">
<g>
	<g>
		<path d="M420.608,311.463l91.391-52.465l-96.612-55.463l96.612-55.463L256,1.109L0.001,148.073l96.612,55.463L0.001,258.998
			l91.39,52.465L0,363.927l256,146.963l256-146.963L420.608,311.463z M80.29,148.073L256,47.201l175.71,100.871L256,248.943
			L80.29,148.073z M80.29,258.998l56.468-32.417L256,295.035l119.242-68.454l56.468,32.417L256,359.868L80.29,258.998z
			 M80.29,363.927l51.246-29.419L256,405.96l124.464-71.452l51.246,29.419L256,464.798L80.29,363.927z"/>
	</g>
</g>
<g>
</g>
<g>
</g>
<g>
</g>
<g>
</g>
<g>
</g>
<g>
</g>
<g>
</g>
<g>
</g>
<g>
</g>
<g>
</g>
<g>
</g>
<g>
</g>
<g>
</g>
<g>
</g>
<g>
</g>
</svg>
