<?xml version="1.0" encoding="iso-8859-1"?>
<!-- Generator: Adobe Illustrator 19.0.0, SVG Export Plug-In . SVG Version: 6.00 Build 0)  -->
<svg version="1.1" id="Capa_1" xmlns="http://www.w3.org/2000/svg" xmlns:xlink="http://www.w3.org/1999/xlink" x="0px" y="0px"
	 viewBox="0 0 512 512" style="enable-background:new 0 0 512 512;" xml:space="preserve">
<g>
	<g>
		<path d="M256,0.306l-12.912,12.912c-1.291,1.009-2.439,2.163-3.432,3.432l-86.073,86.073l28.255,28.252l53.575-53.576v107.373
			h39.956V76.178l54.796,54.796l28.254-28.253L256,0.306z"/>
	</g>
</g>
<g>
	<g>
		<polygon points="330.164,381.025 275.368,435.822 275.368,324.618 235.412,324.618 235.412,434.601 181.837,381.025 
			153.584,409.278 256,511.694 358.417,409.278 		"/>
	</g>
</g>
<g>
	<g>
		<polygon points="184.968,235.828 76.372,235.828 130.67,181.531 102.416,153.278 0,255.694 102.416,358.112 130.67,329.858 
			76.596,275.784 184.968,275.784 		"/>
	</g>
</g>
<g>
	<g>
		<polygon points="409.585,152.889 381.331,181.143 436.016,235.828 324.813,235.828 324.813,275.784 435.017,275.784 
			381.331,329.47 409.585,357.723 512,255.307 		"/>
	</g>
</g>
<g>
</g>
<g>
</g>
<g>
</g>
<g>
</g>
<g>
</g>
<g>
</g>
<g>
</g>
<g>
</g>
<g>
</g>
<g>
</g>
<g>
</g>
<g>
</g>
<g>
</g>
<g>
</g>
<g>
</g>
</svg>
