<?xml version="1.0" encoding="iso-8859-1"?>
<!-- Generator: Adobe Illustrator 19.0.0, SVG Export Plug-In . SVG Version: 6.00 Build 0)  -->
<svg version="1.1" id="Capa_1" xmlns="http://www.w3.org/2000/svg" xmlns:xlink="http://www.w3.org/1999/xlink" x="0px" y="0px"
	 viewBox="0 0 512 512" style="enable-background:new 0 0 512 512;" xml:space="preserve">
<g>
	<g>
		<path d="M432,75V50c0-27.57-22.43-50-50-50H50C22.43,0,0,22.43,0,50v90c0,27.57,22.43,50,50,50h332c27.57,0,50-22.43,50-50v-25h40
			v98.722L195.48,330.178l-0.116,0.049C173.273,339.695,159,361.342,159,385.376V512h114V340.933l239-100.655V75H432z M392,140
			c0,5.514-4.486,10-10,10H50c-5.514,0-10-4.486-10-10V50c0-5.514,4.486-10,10-10h332c5.514,0,10,4.486,10,10V140z M233,472h-34
			v-86.624c0-7.997,4.74-15.202,12.082-18.366L233,357.78V472z"/>
	</g>
</g>
<g>
</g>
<g>
</g>
<g>
</g>
<g>
</g>
<g>
</g>
<g>
</g>
<g>
</g>
<g>
</g>
<g>
</g>
<g>
</g>
<g>
</g>
<g>
</g>
<g>
</g>
<g>
</g>
<g>
</g>
</svg>
