<?xml version="1.0" encoding="iso-8859-1"?>
<!-- Generator: Adobe Illustrator 19.0.0, SVG Export Plug-In . SVG Version: 6.00 Build 0)  -->
<svg version="1.1" id="Capa_1" xmlns="http://www.w3.org/2000/svg" xmlns:xlink="http://www.w3.org/1999/xlink" x="0px" y="0px"
	 viewBox="0 0 512 512" style="enable-background:new 0 0 512 512;" xml:space="preserve">
<g>
	<g>
		<path d="M472.967,116.258c22.753-8.53,38.994-30.495,38.994-56.191c0-33.079-26.912-59.991-59.991-59.991
			c-33.079,0-59.991,26.912-59.991,59.991c0,26.44,17.2,48.924,40.994,56.89v116.075c-16.711-32.893-38.434-62.811-64.796-89.172
			c-32.224-32.224-69.754-57.526-111.546-75.203c-43.279-18.305-89.242-27.587-136.61-27.587V0H0.039v119.982H120.02V81.065
			c171.46,0,310.953,139.493,310.953,310.953H391.98V512h119.982V392.018h-38.994V116.258z M80.027,79.988H40.032V39.994h39.994
			V79.988z M471.967,472.006h-39.994v-39.994h39.994V472.006z M451.971,80.065c-11.026,0-19.997-8.971-19.997-19.997
			c0-11.026,8.971-19.997,19.997-19.997s19.997,8.971,19.997,19.997C471.967,71.094,462.997,80.065,451.971,80.065z"/>
	</g>
</g>
<g>
</g>
<g>
</g>
<g>
</g>
<g>
</g>
<g>
</g>
<g>
</g>
<g>
</g>
<g>
</g>
<g>
</g>
<g>
</g>
<g>
</g>
<g>
</g>
<g>
</g>
<g>
</g>
<g>
</g>
</svg>
