<?xml version="1.0" encoding="iso-8859-1"?>
<!-- Generator: Adobe Illustrator 19.0.0, SVG Export Plug-In . SVG Version: 6.00 Build 0)  -->
<svg version="1.1" id="Capa_1" xmlns="http://www.w3.org/2000/svg" xmlns:xlink="http://www.w3.org/1999/xlink" x="0px" y="0px"
	 viewBox="0 0 512 512" style="enable-background:new 0 0 512 512;" xml:space="preserve">
<g>
	<g>
		<path d="M494.31,18.358C482.719,6.599,467.244,0.078,450.731,0c-16.495-0.064-32.049,6.295-43.729,17.924l-92.171,91.503
			l-27.735-27.734l-84.261,84.262l29.607,29.607L47.736,379.468c-11.045,11.045-10.8,24.931-10.621,35.071
			c0.024,1.403,0.051,2.851,0.051,4.345c0,13.105-3.754,31.461-9.141,36.848L0.033,483.724L28.31,512l27.992-27.992
			c5.385-5.387,23.741-9.139,36.847-9.139c1.493,0,2.941,0.026,4.345,0.051c10.141,0.176,24.025,0.423,35.071-10.622
			l184.307-184.307l29.207,29.207l84.262-84.26l-28.069-28.069l91.723-91.723C517.834,81.306,517.977,42.373,494.31,18.358z
			 M105.438,434.872c-1.732,0.163-4.849,0.107-7.24,0.065c-1.63-0.029-3.313-0.058-5.049-0.058c-2.617,0-9.057,0.126-17.165,1.17
			c1.044-8.109,1.17-14.548,1.17-17.165c0-1.736-0.028-3.419-0.058-5.049c-0.042-2.388-0.097-5.503,0.064-7.234l183.557-182.763
			l27.877,27.877L105.438,434.872z M346.079,252.645l-86.691-86.691l27.708-27.708l86.691,86.692L346.079,252.645z M465.716,76.87
			l-91.722,91.722l-30.887-30.887l92.089-91.421c4.103-4.086,9.55-6.362,15.346-6.294c5.792,0.027,11.221,2.313,15.286,6.438
			C474.129,54.851,474.079,68.507,465.716,76.87z"/>
	</g>
</g>
<g>
</g>
<g>
</g>
<g>
</g>
<g>
</g>
<g>
</g>
<g>
</g>
<g>
</g>
<g>
</g>
<g>
</g>
<g>
</g>
<g>
</g>
<g>
</g>
<g>
</g>
<g>
</g>
<g>
</g>
</svg>
