<?xml version="1.0" encoding="iso-8859-1"?>
<!-- Generator: Adobe Illustrator 19.0.0, SVG Export Plug-In . SVG Version: 6.00 Build 0)  -->
<svg version="1.1" id="Capa_1" xmlns="http://www.w3.org/2000/svg" xmlns:xlink="http://www.w3.org/1999/xlink" x="0px" y="0px"
	 viewBox="0 0 512 512" style="enable-background:new 0 0 512 512;" xml:space="preserve">
<g>
	<g>
		<path d="M472,365.5v61c0,11.58-9.44,21-21.044,21H390v40h60.956c33.66,0,61.044-27.364,61.044-61v-61H472z"/>
	</g>
</g>
<g>
	<g>
		<path d="M494.343,43.083C482.733,31.1,467.324,24.5,450.956,24.5H390v40h60.956c11.407,0,21.044,10.075,21.044,22v60h40v-60
			C512,70.255,505.729,54.836,494.343,43.083z"/>
	</g>
</g>
<g>
	<g>
		<rect x="472" y="196.5" width="40" height="120"/>
	</g>
</g>
<g>
	<g>
		<path d="M61.044,447.5C49.44,447.5,40,438.08,40,426.5v-61H0v61c0,33.636,27.384,61,61.044,61H122v-40H61.044z"/>
	</g>
</g>
<g>
	<g>
		<path d="M61.044,24.5c-16.368,0-31.777,6.6-43.387,18.583C6.271,54.836,0,70.255,0,86.5v60h40v-60c0-11.925,9.637-22,21.044-22
			H122v-40H61.044z"/>
	</g>
</g>
<g>
	<g>
		<rect y="196.5" width="40" height="120"/>
	</g>
</g>
<g>
	<g>
		<rect x="175" y="24.5" width="160" height="40"/>
	</g>
</g>
<g>
	<g>
		<rect x="175" y="447.5" width="160" height="40"/>
	</g>
</g>
<g>
</g>
<g>
</g>
<g>
</g>
<g>
</g>
<g>
</g>
<g>
</g>
<g>
</g>
<g>
</g>
<g>
</g>
<g>
</g>
<g>
</g>
<g>
</g>
<g>
</g>
<g>
</g>
<g>
</g>
</svg>
