<?xml version="1.0" encoding="iso-8859-1"?>
<!-- Generator: Adobe Illustrator 19.0.0, SVG Export Plug-In . SVG Version: 6.00 Build 0)  -->
<svg version="1.1" id="Capa_1" xmlns="http://www.w3.org/2000/svg" xmlns:xlink="http://www.w3.org/1999/xlink" x="0px" y="0px"
	 viewBox="0 0 512 512" style="enable-background:new 0 0 512 512;" xml:space="preserve">
<g>
	<g>
		<path d="M398.619,0.018L318.3,80.509L61.238,178.58L0,511.982l333.492-60.119l97.853-257.894L512,113.141L398.619,0.018z
			 M304.13,416.521L83.948,456.214L199.797,339.62c7.606,3.581,16.09,5.594,25.039,5.594c32.525,0,58.985-26.46,58.985-58.985
			c0-32.525-26.46-58.985-58.985-58.985s-58.985,26.46-58.985,58.985c0,8.989,2.029,17.511,5.641,25.143L56.193,427.411
			l40.313-219.486l227.72-86.876l66.748,66.596L304.13,416.521z M205.84,286.229c0-10.474,8.521-18.995,18.995-18.995
			s18.995,8.521,18.995,18.995c0,10.474-8.521,18.995-18.995,18.995S205.84,296.703,205.84,286.229z M414.767,153.965
			l-56.712-56.686l40.625-40.71l56.763,56.634L414.767,153.965z"/>
	</g>
</g>
<g>
</g>
<g>
</g>
<g>
</g>
<g>
</g>
<g>
</g>
<g>
</g>
<g>
</g>
<g>
</g>
<g>
</g>
<g>
</g>
<g>
</g>
<g>
</g>
<g>
</g>
<g>
</g>
<g>
</g>
</svg>
