<?xml version="1.0" encoding="iso-8859-1"?>
<!-- Generator: Adobe Illustrator 19.0.0, SVG Export Plug-In . SVG Version: 6.00 Build 0)  -->
<svg version="1.1" id="Capa_1" xmlns="http://www.w3.org/2000/svg" xmlns:xlink="http://www.w3.org/1999/xlink" x="0px" y="0px"
	 viewBox="0 0 512 512" style="enable-background:new 0 0 512 512;" xml:space="preserve">
<g>
	<g>
		<path d="M494.397,132.108L379.676,17.545C356.299-5.799,318.262-5.8,294.868,17.561L17.599,295.052
			C6.247,306.391-0.004,321.473,0,337.519s6.261,31.125,17.62,42.458l114.753,114.506c11.683,11.652,27.021,17.478,42.365,17.478
			c15.358,0,30.722-5.84,42.416-17.518L494.397,217.02C505.749,205.684,512,190.607,512,174.564
			C512,158.521,505.749,143.444,494.397,132.108z M188.875,466.154c-7.787,7.776-20.462,7.78-28.251,0.011L45.874,351.662
			c-3.786-3.778-5.872-8.805-5.874-14.153c-0.001-5.349,2.082-10.376,5.881-14.17l15.088-15.1l143.006,142.806L188.875,466.154z
			 M232.25,422.751L89.242,279.943l88.308-88.379l143.014,142.815L232.25,422.751z M466.118,188.731L348.84,306.085L205.823,163.269
			l117.325-117.42c3.896-3.891,9.013-5.836,14.132-5.836c5.117,0,10.236,1.946,14.131,5.836l114.721,114.563
			c3.784,3.779,5.868,8.805,5.868,14.152S469.916,184.938,466.118,188.731z"/>
	</g>
</g>
<g>
</g>
<g>
</g>
<g>
</g>
<g>
</g>
<g>
</g>
<g>
</g>
<g>
</g>
<g>
</g>
<g>
</g>
<g>
</g>
<g>
</g>
<g>
</g>
<g>
</g>
<g>
</g>
<g>
</g>
</svg>
